<?xml version="1.0" encoding="UTF-8"?>
<!DOCTYPE svg PUBLIC "-//W3C//DTD SVG 1.1//EN" "http://www.w3.org/Graphics/SVG/1.1/DTD/svg11.dtd">
<svg xmlns="http://www.w3.org/2000/svg" version="1.1" width="558px" height="665px" style="shape-rendering:geometricPrecision; text-rendering:geometricPrecision; image-rendering:optimizeQuality; fill-rule:evenodd; clip-rule:evenodd" xmlns:xlink="http://www.w3.org/1999/xlink">
<g><path style="opacity:1" fill="#010101" d="M -0.5,-0.5 C 185.5,-0.5 371.5,-0.5 557.5,-0.5C 557.5,221.167 557.5,442.833 557.5,664.5C 371.5,664.5 185.5,664.5 -0.5,664.5C -0.5,442.833 -0.5,221.167 -0.5,-0.5 Z"/></g>
<g><path style="opacity:1" fill="#fbfcfc" d="M 338.5,57.5 C 341.946,58.6874 345.613,59.3541 349.5,59.5C 350.5,59.5 351.5,59.5 352.5,59.5C 356.639,60.5629 360.972,61.2296 365.5,61.5C 405.028,67.286 442.028,80.1194 476.5,100C 488.891,108.385 498.391,119.218 505,132.5C 507.017,141.869 506.85,151.202 504.5,160.5C 497.209,175.63 486.209,187.463 471.5,196C 452.769,207.363 432.769,216.03 411.5,222C 350.757,238.323 289.091,243.156 226.5,236.5C 221.731,235.111 216.731,234.444 211.5,234.5C 178.421,230.529 146.421,222.362 115.5,210C 97.6916,202.355 81.8582,191.855 68,178.5C 63.5207,173.202 59.6874,167.536 56.5,161.5C 54.1649,153.993 53.3315,146.326 54,138.5C 58.9432,123.214 68.1099,111.047 81.5,102C 100.556,89.0825 121.223,79.4159 143.5,73C 189.253,60.0198 235.919,54.1864 283.5,55.5C 301.869,55.4066 320.203,56.0733 338.5,57.5 Z"/></g>
<g><path style="opacity:1" fill="#353535" d="M 338.5,57.5 C 341.518,57.3354 344.518,57.502 347.5,58C 348.416,58.2784 349.082,58.7784 349.5,59.5C 345.613,59.3541 341.946,58.6874 338.5,57.5 Z"/></g>
<g><path style="opacity:1" fill="#3f3e3e" d="M 352.5,59.5 C 357.122,59.1561 361.455,59.8227 365.5,61.5C 360.972,61.2296 356.639,60.5629 352.5,59.5 Z"/></g>
<g><path style="opacity:1" fill="#050505" d="M 504.5,160.5 C 504.527,162.199 505.194,163.533 506.5,164.5C 504.598,167.337 503.931,170.671 504.5,174.5C 502.15,186.536 496.65,196.869 488,205.5C 471.133,219.855 452.299,231.022 431.5,239C 399.697,250.261 367.031,257.761 333.5,261.5C 325.986,261.796 318.653,262.462 311.5,263.5C 282.761,265.304 254.094,264.637 225.5,261.5C 221.455,259.823 217.122,259.156 212.5,259.5C 172.687,255.175 135.02,243.675 99.5,225C 85.1672,217 73.0005,206.5 63,193.5C 59.9849,188.476 57.8182,183.142 56.5,177.5C 56.665,174.15 56.4983,170.817 56,167.5C 55.7216,166.584 55.2216,165.918 54.5,165.5C 55.8062,164.533 56.4729,163.199 56.5,161.5C 59.6874,167.536 63.5207,173.202 68,178.5C 81.8582,191.855 97.6916,202.355 115.5,210C 146.421,222.362 178.421,230.529 211.5,234.5C 216.269,235.889 221.269,236.556 226.5,236.5C 289.091,243.156 350.757,238.323 411.5,222C 432.769,216.03 452.769,207.363 471.5,196C 486.209,187.463 497.209,175.63 504.5,160.5 Z"/></g>
<g><path style="opacity:1" fill="#4a4b49" d="M 506.5,164.5 C 506.5,164.833 506.5,165.167 506.5,165.5C 505.833,168.5 505.167,171.5 504.5,174.5C 503.931,170.671 504.598,167.337 506.5,164.5 Z"/></g>
<g><path style="opacity:1" fill="#fcfcfc" d="M 506.5,165.5 C 507.66,204.762 507.827,244.096 507,283.5C 506.471,286.947 505.638,290.281 504.5,293.5C 499.023,305.231 491.023,315.064 480.5,323C 451.504,342.228 419.837,355.228 385.5,362C 364.75,366.655 343.75,369.488 322.5,370.5C 298.843,371.321 275.176,371.655 251.5,371.5C 228.259,370.703 205.259,368.036 182.5,363.5C 180.485,362.076 178.152,361.41 175.5,361.5C 139.652,355.4 106.985,341.9 77.5,321C 68.323,313.682 61.323,304.849 56.5,294.5C 55.7265,290.86 55.0599,287.193 54.5,283.5C 54.3333,245.499 54.5,207.499 55,169.5C 55.1829,172.365 55.6829,175.031 56.5,177.5C 57.8182,183.142 59.9849,188.476 63,193.5C 73.0005,206.5 85.1672,217 99.5,225C 135.02,243.675 172.687,255.175 212.5,259.5C 216.639,260.563 220.972,261.23 225.5,261.5C 254.094,264.637 282.761,265.304 311.5,263.5C 319.079,263.906 326.412,263.239 333.5,261.5C 367.031,257.761 399.697,250.261 431.5,239C 452.299,231.022 471.133,219.855 488,205.5C 496.65,196.869 502.15,186.536 504.5,174.5C 505.167,171.5 505.833,168.5 506.5,165.5 Z"/></g>
<g><path style="opacity:1" fill="#d5d5d4" d="M 54.5,165.5 C 55.2216,165.918 55.7216,166.584 56,167.5C 56.4983,170.817 56.665,174.15 56.5,177.5C 55.6829,175.031 55.1829,172.365 55,169.5C 54.5,207.499 54.3333,245.499 54.5,283.5C 53.176,244.294 53.176,204.961 54.5,165.5 Z"/></g>
<g><path style="opacity:1" fill="#8e8e8e" d="M 211.5,234.5 C 216.731,234.444 221.731,235.111 226.5,236.5C 221.269,236.556 216.269,235.889 211.5,234.5 Z"/></g>
<g><path style="opacity:1" fill="#474646" d="M 212.5,259.5 C 217.122,259.156 221.455,259.823 225.5,261.5C 220.972,261.23 216.639,260.563 212.5,259.5 Z"/></g>
<g><path style="opacity:1" fill="#b7b6b6" d="M 333.5,261.5 C 326.412,263.239 319.079,263.906 311.5,263.5C 318.653,262.462 325.986,261.796 333.5,261.5 Z"/></g>
<g><path style="opacity:1" fill="#060606" d="M 504.5,293.5 C 504.392,295.514 505.058,297.18 506.5,298.5C 505.148,312.879 499.648,325.546 490,336.5C 469.843,354.67 446.677,367.837 420.5,376C 332.612,402.575 244.279,404.242 155.5,381C 124.817,372.744 97.3173,358.577 73,338.5C 62.6186,328.737 56.7852,316.737 55.5,302.5C 55.7678,300.901 55.4345,299.568 54.5,298.5C 55.1667,297.167 55.8333,295.833 56.5,294.5C 61.323,304.849 68.323,313.682 77.5,321C 106.985,341.9 139.652,355.4 175.5,361.5C 177.515,362.924 179.848,363.59 182.5,363.5C 205.259,368.036 228.259,370.703 251.5,371.5C 260.994,372.166 270.661,372.5 280.5,372.5C 294.699,372.685 308.699,372.019 322.5,370.5C 343.75,369.488 364.75,366.655 385.5,362C 419.837,355.228 451.504,342.228 480.5,323C 491.023,315.064 499.023,305.231 504.5,293.5 Z"/></g>
<g><path style="opacity:1" fill="#fcfcfc" d="M 506.5,298.5 C 507.655,337.792 507.821,377.125 507,416.5C 504.345,430.487 497.512,441.987 486.5,451C 472.612,461.449 457.612,470.115 441.5,477C 401.594,491.99 360.261,500.99 317.5,504C 250.948,509.755 186.282,501.421 123.5,479C 106.3,472.134 90.3002,463.134 75.5,452C 68.1618,445.006 61.9951,437.173 57,428.5C 55.7139,423.904 54.8806,419.237 54.5,414.5C 54.1682,376.996 54.5015,339.663 55.5,302.5C 56.7852,316.737 62.6186,328.737 73,338.5C 97.3173,358.577 124.817,372.744 155.5,381C 244.279,404.242 332.612,402.575 420.5,376C 446.677,367.837 469.843,354.67 490,336.5C 499.648,325.546 505.148,312.879 506.5,298.5 Z"/></g>
<g><path style="opacity:1" fill="#9a9a99" d="M 175.5,361.5 C 178.152,361.41 180.485,362.076 182.5,363.5C 179.848,363.59 177.515,362.924 175.5,361.5 Z"/></g>
<g><path style="opacity:1" fill="#d1d1d0" d="M 322.5,370.5 C 308.699,372.019 294.699,372.685 280.5,372.5C 270.661,372.5 260.994,372.166 251.5,371.5C 275.176,371.655 298.843,371.321 322.5,370.5 Z"/></g>
<g><path style="opacity:1" fill="#d9dad8" d="M 54.5,298.5 C 55.4345,299.568 55.7678,300.901 55.5,302.5C 54.5015,339.663 54.1682,376.996 54.5,414.5C 53.1819,375.973 53.1819,337.306 54.5,298.5 Z"/></g>
<g><path style="opacity:1" fill="#fbfbfb" d="M 338.5,526.5 C 343.75,526.698 348.75,526.031 353.5,524.5C 392.062,518.591 428.729,506.757 463.5,489C 480.333,480.167 493.167,467.333 502,450.5C 503.715,444.926 505.048,439.26 506,433.5C 507.162,452.853 507.662,472.353 507.5,492C 507.333,511.167 507.167,530.333 507,549.5C 503.449,564.769 495.283,576.936 482.5,586C 453.792,605.028 422.459,618.028 388.5,625C 329.543,636.227 270.21,638.56 210.5,632C 179.183,627.921 148.85,620.254 119.5,609C 108.769,604.468 98.4359,599.134 88.5,593C 77.3216,585.487 67.8216,576.32 60,565.5C 56.8424,559.859 54.8424,553.859 54,547.5C 53.0072,509.356 53.3405,471.356 55,433.5C 55.1928,442.135 57.5261,450.135 62,457.5C 70.9683,470.137 82.135,480.304 95.5,488C 129.495,506.998 165.828,518.998 204.5,524C 249.06,530.332 293.727,531.165 338.5,526.5 Z"/></g>
<g><path style="opacity:1" fill="#bdbcbc" d="M 353.5,524.5 C 348.75,526.031 343.75,526.698 338.5,526.5C 343.269,525.111 348.269,524.444 353.5,524.5 Z"/></g>
</svg>
